<svg xmlns="http://www.w3.org/2000/svg" width="60.37" height="60.37" viewBox="0 0 60.37 60.37">
  <g id="Grupo_2767" data-name="Grupo 2767" transform="translate(-255.498 -10686.03)">
    <circle id="Elipse_256" data-name="Elipse 256" cx="30.185" cy="30.185" r="30.185" transform="translate(255.498 10686.03)" fill="#e09e29" opacity="0.8"/>
    <g id="Grupo_2766" data-name="Grupo 2766" transform="translate(263.641 10694.171)">
      <path id="Trazado_6232" data-name="Trazado 6232" d="M261.581,10705.675a22.033,22.033,0,0,0,0,14.5,1.52,1.52,0,0,0,.069.2,22.043,22.043,0,0,0,41.491,0,1.317,1.317,0,0,0,.07-.2,22.032,22.032,0,0,0,0-14.5,1.806,1.806,0,0,0-.07-.2,22.043,22.043,0,0,0-41.491,0,1.781,1.781,0,0,0-.069.2Zm20.814-11.632c.84,0,2.193,1.52,3.325,4.915a34.693,34.693,0,0,1,1.3,5.568h-9.252a34.6,34.6,0,0,1,1.3-5.568c1.132-3.4,2.485-4.915,3.324-4.915Zm5.009,13.645c.153,1.685.233,3.441.233,5.241s-.081,3.557-.233,5.24H277.387c-.151-1.684-.231-3.442-.231-5.24s.081-3.557.231-5.241Zm13.873,5.241a18.775,18.775,0,0,1-.74,5.24h-9.964c.148-1.719.223-3.482.223-5.24s-.075-3.523-.223-5.241h9.964a18.787,18.787,0,0,1,.74,5.241Zm-18.882,18.883c-.838,0-2.192-1.521-3.324-4.913a34.562,34.562,0,0,1-1.3-5.569h9.252a34.731,34.731,0,0,1-1.3,5.569c-1.132,3.392-2.485,4.913-3.325,4.913Zm-8.178-13.643h-9.963a18.9,18.9,0,0,1,0-10.481h9.963c-.148,1.718-.221,3.481-.221,5.241s.074,3.521.221,5.24Zm-8.729,3.16h9.091a30.385,30.385,0,0,0,2.879,9.826,18.968,18.968,0,0,1-11.97-9.826Zm21.844,9.826a30.3,30.3,0,0,0,2.879-9.826H299.3a18.975,18.975,0,0,1-11.972,9.826Zm11.972-26.629h-9.092a30.288,30.288,0,0,0-2.879-9.824,18.966,18.966,0,0,1,11.972,9.824Zm-21.846-9.824a30.372,30.372,0,0,0-2.879,9.824h-9.091a18.959,18.959,0,0,1,11.97-9.824Zm0,0" transform="translate(-260.354 -10690.885)" fill="#fff"/>
    </g>
  </g>
</svg>
