<svg xmlns="http://www.w3.org/2000/svg" width="67.834" height="76.533" viewBox="0 0 67.834 76.533">
  <g id="Grupo_62045" data-name="Grupo 62045" transform="translate(-79.427 -352.021) rotate(20)">
    <rect id="Rectángulo_18405" data-name="Rectángulo 18405" width="62.942" height="62.942" rx="6.357" transform="translate(199.35 306.054) rotate(-20.54)" fill="#4c65ba" opacity="0.36"/>
    <rect id="Rectángulo_18406" data-name="Rectángulo 18406" width="62.942" height="62.942" rx="6.357" transform="translate(195.238 304.184) rotate(-20.54)" fill="#fff"/>
    <g id="Grupo_62044" data-name="Grupo 62044" transform="translate(202.105 289.013)">
      <rect id="Rectángulo_18407" data-name="Rectángulo 18407" width="52.221" height="52.221" transform="matrix(0.936, -0.351, 0.351, 0.936, 0, 18.323)" fill="#599af2"/>
      <path id="Trazado_124270" data-name="Trazado 124270" d="M224.107,364.493l-4.448-11.872,4.986-13.5A4.374,4.374,0,0,1,229.9,336.4l10.157,2.721a.719.719,0,0,0,.819-.35l7.806-14.234a7.578,7.578,0,0,1,9.325-3.415l9.618,3.7,7.676,20.488Zm-1.83-11.878,3.266,8.72,46.6-17.462-6.429-17.158-8.588-3.3a5.11,5.11,0,0,0-6.292,2.3l-7.807,14.234a3.167,3.167,0,0,1-3.605,1.541l-10.158-2.722a1.927,1.927,0,0,0-2.321,1.2Z" transform="translate(-206.553 -296.031)" fill="#fff" opacity="0.47"/>
      <path id="Trazado_124271" data-name="Trazado 124271" d="M242.031,322.871a7.049,7.049,0,1,1,6.593-9.523h0a7.049,7.049,0,0,1-6.593,9.523Zm-.013-11.646a4.6,4.6,0,1,0,4.308,2.984A4.579,4.579,0,0,0,242.018,311.225Z" transform="translate(-209.343 -293.871)" fill="#fff" opacity="0.47"/>
    </g>
  </g>
</svg>
